<svg width="22" height="21" viewBox="0 0 22 21" fill="none" xmlns="http://www.w3.org/2000/svg">
<path fill-rule="evenodd" clip-rule="evenodd" d="M0 3C0 1.34315 1.34315 0 3 0H7.43845C8.81505 0 10.015 0.93689 10.3489 2.27239L10.7808 4H12.5H19C20.6569 4 22 5.34315 22 7V8C22 8.5523 21.5523 9 21 9C20.4477 9 20 8.5523 20 8V7C20 6.44772 19.5523 6 19 6H12.5H10.7808H3C2.44772 6 2 6.44772 2 7V8V17C2 17.5523 2.44772 18 3 18H7C7.55228 18 8 18.4477 8 19C8 19.5523 7.55228 20 7 20H3C1.34315 20 0 18.6569 0 17V8V7V3ZM2 4.17071C2.31278 4.06015 2.64936 4 3 4H8.71922L8.40859 2.75746C8.2973 2.3123 7.89732 2 7.43845 2H3C2.44772 2 2 2.44772 2 3V4.17071ZM16 17C13.2951 17 12 18.6758 12 20C12 20.5523 11.5523 21 11 21C10.4477 21 10 20.5523 10 20C10 18.1742 11.1429 16.5122 12.9952 15.6404C12.3757 14.936 12 14.0119 12 13C12 10.7909 13.7909 9 16 9C18.2091 9 20 10.7909 20 13C20 14.0119 19.6243 14.936 19.0048 15.6404C20.8571 16.5122 22 18.1742 22 20C22 20.5523 21.5523 21 21 21C20.4477 21 20 20.5523 20 20C20 18.6758 18.7049 17 16 17ZM16 15C17.1046 15 18 14.1046 18 13C18 11.8954 17.1046 11 16 11C14.8954 11 14 11.8954 14 13C14 14.1046 14.8954 15 16 15Z" fill="#7E8CAC"/>
</svg>
