<svg width="24" height="24" viewBox="0 0 24 24" fill="none" xmlns="http://www.w3.org/2000/svg">
<path d="M6.99998 4V20M6.99998 4L2.44998 8.58M6.99998 4H16.25C16.6149 4.03814 16.9556 4.20053 17.215 4.45996C17.4744 4.71939 17.6368 5.0601 17.675 5.425V18.555C17.6412 18.9235 17.4807 19.2689 17.2209 19.5323C16.9611 19.7958 16.618 19.9611 16.25 20H3.87498C3.68538 20.0028 3.49718 19.9671 3.32172 19.8953C3.14626 19.8234 2.98716 19.7167 2.85402 19.5817C2.72087 19.4467 2.61644 19.2861 2.547 19.1097C2.47756 18.9332 2.44456 18.7445 2.44998 18.555V8.58M2.44998 8.58H13.395V15.42H2.44998M20.525 6.3C21.34 5.65 21.95 6.185 21.95 6.87V17.13C21.95 17.995 21.34 18.35 20.525 17.7L13.395 12L20.525 6.3Z" stroke="#7E8CAC" stroke-width="1.25" stroke-linecap="round" stroke-linejoin="round"/>
</svg>
