<svg width="24" height="24" viewBox="0 0 24 24" fill="none" xmlns="http://www.w3.org/2000/svg">
<g clip-path="url(#clip0_144_3759)">
<path d="M12 0C5.3723 0 0 5.3723 0 12C0 18.6277 5.3723 24 12 24C18.6277 24 24 18.6277 24 12C24 5.3723 18.6277 0 12 0ZM12 22.125C6.40795 22.125 1.875 17.592 1.875 12C1.875 6.40795 6.40795 1.875 12 1.875C17.592 1.875 22.125 6.40795 22.125 12C22.125 17.592 17.592 22.125 12 22.125Z" fill="#7E8CAC"/>
<path d="M15.75 12C15.75 14.0713 14.0713 15.75 12 15.75C9.92869 15.75 8.25 14.0713 8.25 12C8.25 9.92869 9.92869 8.25 12 8.25C14.0713 8.25 15.75 9.92869 15.75 12Z" fill="#7E8CAC"/>
</g>
<defs>
<clipPath id="clip0_144_3759">
<rect width="24" height="24" fill="white"/>
</clipPath>
</defs>
</svg>
