<svg width="24" height="24" viewBox="0 0 24 24" fill="none" xmlns="http://www.w3.org/2000/svg">
<path d="M18 5.25V3.75H3V17.25C3 18.9067 4.34325 20.25 6 20.25H18C19.6567 20.25 21 18.9067 21 17.25V5.25H18ZM19.5 17.25C19.5 18.0787 18.8287 18.75 18 18.75H6C5.17125 18.75 4.5 18.0787 4.5 17.25V5.25H16.5V17.25H18V6.75H19.5V17.25ZM10.5 6.75H6V11.25H10.5V6.75ZM9 9.75H7.5V8.25H9V9.75ZM12 6.75H15V8.25H12V6.75ZM12 9.75H15V11.25H12V9.75ZM6 12.75H15V14.25H6V12.75ZM6 15.75H15V17.25H6V15.75Z" fill="#7E8CAC"/>
</svg>
