<svg width="26" height="25" viewBox="0 0 26 25" fill="none" xmlns="http://www.w3.org/2000/svg">
<path d="M11.9168 3.13807C11.9149 2.56278 12.3984 2.09495 12.9967 2.09314C13.5951 2.09134 14.0816 2.55625 14.0834 3.13154L11.9168 3.13807Z" fill="white"/>
<path d="M15.5087 10.7241L14.1124 12.075L14.0833 3.13153L11.9166 3.13806L11.9458 12.0816L10.5408 10.7391C10.1164 10.3335 9.43049 10.3356 9.00875 10.7436C8.58701 11.1517 8.58916 11.8112 9.01356 12.2168L9.01628 12.2194L9.01735 12.2204L13.0422 16.0662L17.0306 12.207L17.0367 12.2011L17.0375 12.2003L17.0384 12.1995L17.0448 12.1933L15.5087 10.7241Z" fill="white"/>
<path d="M17.0456 12.1926C17.4673 11.7845 17.4652 11.1249 17.0408 10.7194C16.6164 10.3139 15.9304 10.316 15.5088 10.7241L17.0456 12.1926Z" fill="white"/>
<path d="M4.33341 12.5C4.33341 11.3494 5.30346 10.4166 6.50008 10.4166C7.09838 10.4166 7.58341 9.95027 7.58341 9.37498C7.58341 8.79968 7.09838 8.33331 6.50008 8.33331C4.10685 8.33331 2.16675 10.1988 2.16675 12.5V18.75C2.16675 21.0511 4.10685 22.9166 6.50008 22.9166H18.4167C21.4083 22.9166 23.8334 20.5848 23.8334 17.7083V12.5C23.8334 10.1988 21.8933 8.33331 19.5001 8.33331C18.9018 8.33331 18.4167 8.79968 18.4167 9.37498C18.4167 9.95027 18.9018 10.4166 19.5001 10.4166C20.6967 10.4166 21.6667 11.3494 21.6667 12.5V17.7083C21.6667 19.4342 20.2117 20.8333 18.4167 20.8333H6.50008C5.30346 20.8333 4.33341 19.9006 4.33341 18.75V12.5Z" fill="white"/>
</svg>
