<svg width="245" height="207" viewBox="0 0 245 207" fill="none" xmlns="http://www.w3.org/2000/svg">
<path d="M213.311 175.776L212.228 174.222C211.498 173.166 209.586 172.708 209.586 172.708L205.701 175.404L203.005 178.99C202.387 179.913 202.394 181.115 203.025 182.025L203.509 182.729C203.642 182.921 203.855 183.021 204.067 183.021C204.2 183.021 204.333 182.981 204.452 182.901L213.118 176.858C213.47 176.612 213.557 176.128 213.311 175.776Z" fill="#4568AD"/>
<path d="M194.319 128.873C192.167 126.635 188.123 125.393 185.221 126.509C181.974 127.757 180.672 130.54 180.838 133.688C180.898 134.83 181.164 135.925 181.522 136.669C181.562 136.755 181.894 137.4 181.954 137.612C182.253 138.409 180.825 139.558 180.825 140.507C180.825 141.218 182.359 141.357 182.492 141.457C183.182 141.955 182.91 145.036 186.915 144.525C188.263 144.352 188.329 144.213 188.814 144.186C190.075 144.107 193.635 145.269 193.635 145.269L195.043 142.32C195.043 142.32 193.887 141.789 195.016 138.223C195.886 135.487 195.7 130.307 194.319 128.873Z" fill="#F9DDBD"/>
<path d="M183.249 143.004C183.8 142.925 184.318 142.686 184.703 142.247C185.128 141.769 184.696 141.43 184.172 141.789C183.853 142.008 183.375 142.188 182.91 142.194L183.249 143.004Z" fill="#444444"/>
<path d="M184.761 138.648C185.156 138.55 185.355 137.983 185.206 137.381C185.056 136.78 184.615 136.372 184.22 136.47C183.825 136.568 183.626 137.135 183.775 137.737C183.924 138.338 184.366 138.746 184.761 138.648Z" fill="#312D2D"/>
<path d="M183.674 136.171C183.056 136.596 182.751 136.204 182.857 135.766C182.937 135.447 183.275 135.089 184.125 134.976C184.922 134.876 185.381 135.202 185.666 135.394C185.958 135.587 186.018 135.859 185.852 135.939C185.626 136.052 184.438 135.646 183.674 136.171Z" fill="#454140"/>
<path d="M195.282 130.075C194.996 129.69 194.684 129.331 194.325 129.012C193.821 128.561 193.236 128.209 192.625 127.923C191.005 127.173 189.146 126.927 187.393 127.286C185.64 127.645 184.019 128.627 182.923 130.042C182.08 131.137 181.562 132.638 182.093 133.913C182.751 133.721 183.236 133.15 183.953 133.004C184.882 132.804 185.898 132.791 186.689 132.266C186.994 132.067 187.253 131.795 187.539 131.569C187.612 131.549 187.658 131.543 187.658 131.543C188.927 131.908 187.99 134.883 189.591 136.178C189.909 136.437 190.281 136.649 190.281 136.649C190.281 136.649 190.009 134.551 191.35 134.531C192.745 134.511 192.858 135.939 192.459 137.154C192.048 138.416 191.337 137.971 191.59 138.389C192.001 139.073 194.12 139.272 194.784 139.133C195.673 138.953 196.245 137.984 196.776 137.247C197.393 136.397 197.34 135.387 197.247 134.338C197.141 133.183 196.59 132.114 195.979 131.124C195.76 130.759 195.527 130.407 195.282 130.075Z" fill="#312D2D"/>
<path d="M192.254 138.834L192.758 138.316C192.698 138.296 192.632 138.283 192.579 138.263C192.758 138.064 192.938 137.771 193.077 137.34C193.25 136.815 193.575 135.5 192.911 134.584C192.672 134.259 192.214 133.86 191.384 133.86H191.344C190.866 133.867 190.447 134.053 190.148 134.405C189.916 134.67 189.783 135.002 189.704 135.334C189.411 134.916 189.285 134.358 189.199 133.78L188.588 134.059C188.721 134.843 188.953 135.64 189.591 136.158C189.909 136.417 190.281 136.629 190.281 136.629C190.281 136.629 190.009 134.531 191.35 134.511H191.384C192.745 134.511 192.858 135.925 192.466 137.134C192.054 138.396 191.344 137.951 191.596 138.369C191.696 138.568 191.948 138.714 192.254 138.834Z" fill="#312D2D"/>
<path d="M215.489 154.951L211.365 147.201L195.395 156.438V156.445C193.575 157.408 192.891 159.666 193.854 161.485C193.954 161.678 194.073 161.85 194.206 162.016L194.232 162.05C194.266 162.089 194.299 162.129 194.332 162.176L205.528 175.636L210.23 172.177L202.673 161.186L215.489 154.951Z" fill="#EDBD82"/>
<path d="M218.112 148.576C217.182 146.823 215.369 145.813 213.503 145.813C212.673 145.813 211.837 146.013 211.053 146.424V146.418L199.784 152.965L204.459 161.757L215.954 155.641C218.504 154.287 219.467 151.126 218.112 148.576Z" fill="#646464"/>
<path d="M207.348 167.993L202.274 171.725L205.528 175.636L210.23 172.177L207.348 167.993Z" fill="#E0E0E0"/>
<path d="M224.759 172.741C216.213 172.741 209.26 179.694 209.26 188.234C209.26 196.78 216.213 203.726 224.759 203.726C233.299 203.726 240.252 196.773 240.252 188.234C240.252 179.687 233.306 172.741 224.759 172.741ZM224.759 198.195C219.274 198.195 214.792 193.725 214.792 188.234C214.792 182.742 219.268 178.273 224.759 178.273C230.251 178.273 234.72 182.742 234.72 188.234C234.72 193.725 230.251 198.195 224.759 198.195Z" fill="url(#paint0_radial_19_59)"/>
<path d="M180.241 172.741C171.694 172.741 164.741 179.694 164.741 188.234C164.741 196.78 171.694 203.726 180.241 203.726C188.781 203.726 195.733 196.773 195.733 188.234C195.733 179.687 188.787 172.741 180.241 172.741ZM180.241 198.195C174.756 198.195 170.273 193.725 170.273 188.234C170.273 182.742 174.749 178.273 180.241 178.273C185.732 178.273 190.202 182.742 190.202 188.234C190.202 193.725 185.732 198.195 180.241 198.195Z" fill="url(#paint1_radial_19_59)"/>
<path d="M226.353 187.125C226.294 186.965 226.211 186.815 226.107 186.68L220.018 178.485L213.251 169.361L215.735 163.962C215.788 163.849 215.828 163.73 215.854 163.61C215.881 163.491 215.901 163.371 215.901 163.252C215.907 163.132 215.894 163.012 215.874 162.9C215.834 162.667 215.755 162.448 215.628 162.249C215.501 162.039 215.333 161.858 215.133 161.717C214.933 161.575 214.706 161.476 214.466 161.425L214.334 161.405C214.254 161.392 214.174 161.379 214.094 161.379H214.068C214.048 161.379 214.028 161.386 214.015 161.386C213.882 161.392 213.749 161.405 213.623 161.439C213.59 161.445 213.557 161.452 213.523 161.465C213.377 161.512 213.238 161.571 213.105 161.651C213.098 161.658 213.085 161.664 213.078 161.671C212.959 161.751 212.853 161.844 212.753 161.943C212.727 161.97 212.7 162.003 212.673 162.03C212.574 162.149 212.481 162.282 212.414 162.428L212.401 162.455L210.004 167.668L188.774 164.6L189.484 161.91C189.743 160.941 189.159 159.945 188.183 159.686C188.176 159.686 188.163 159.686 188.156 159.679C188.01 159.639 187.864 159.619 187.718 159.619C186.914 159.619 186.177 160.157 185.958 160.974L184.457 166.652L178.813 188.014C178.56 188.984 179.138 189.98 180.108 190.239C180.267 190.279 180.42 190.299 180.579 190.299H180.586C181.389 190.299 182.127 189.761 182.346 188.944L187.406 169.779L201.311 188.831C201.344 188.878 201.391 188.918 201.431 188.957C201.471 188.997 201.504 189.037 201.544 189.077C201.584 189.117 201.623 189.15 201.67 189.183L201.683 189.196C201.69 189.203 201.703 189.21 201.71 189.216C201.75 189.25 201.789 189.276 201.836 189.303C201.856 189.316 201.869 189.329 201.889 189.336C201.909 189.343 201.929 189.356 201.949 189.369C201.955 189.369 201.962 189.376 201.969 189.382L202.009 189.402C202.028 189.409 202.042 189.416 202.062 189.422C202.082 189.429 202.108 189.442 202.128 189.449C202.175 189.469 202.228 189.489 202.274 189.502C202.307 189.515 202.341 189.529 202.38 189.535C202.507 189.562 202.646 189.582 202.779 189.582H224.64C225.33 189.582 225.961 189.196 226.267 188.579C226.506 188.134 226.532 187.596 226.353 187.125ZM191.071 168.624L202.009 170.204L208.423 171.134L202.434 184.183L191.071 168.624ZM205.634 185.943L211.518 173.146L221.027 185.943H205.634Z" fill="url(#paint2_linear_19_59)"/>
<path d="M207.175 188.061C206.863 187.384 206.292 186.905 205.681 186.806C204.897 186.673 201.657 187.729 201.178 187.948C200.016 188.466 198.602 189.94 199.246 191.474C199.651 192.417 200.229 192.703 200.846 192.703C201.364 192.703 201.902 192.504 202.394 192.324L202.766 192.191C203.011 192.105 203.297 192.019 203.596 191.932C204.897 191.547 206.518 191.062 207.182 189.947C207.48 189.429 207.487 188.725 207.175 188.061Z" fill="#504F4F"/>
<path d="M188.661 159.354L182.99 157.992C182.851 157.955 182.708 157.937 182.565 157.939C181.741 157.939 180.991 158.497 180.792 159.334C180.736 159.566 180.726 159.808 180.763 160.045C180.8 160.281 180.884 160.508 181.009 160.713C181.135 160.917 181.299 161.094 181.493 161.235C181.687 161.375 181.907 161.476 182.14 161.532L187.811 162.893C187.95 162.926 188.09 162.946 188.236 162.946C189.059 162.946 189.803 162.388 190.009 161.552C190.241 160.575 189.637 159.593 188.661 159.354Z" fill="#405966"/>
<path d="M218.73 159.699C218.643 159.632 218.55 159.566 218.457 159.513C217.694 159.081 216.837 159.181 215.961 159.141C214.898 159.088 213.822 159.041 212.76 158.975C212.175 158.935 211.591 158.929 211.007 158.929C210.323 158.929 209.632 158.942 208.955 158.942C208.437 158.942 207.925 158.935 207.414 158.909C207.388 158.902 207.348 158.902 207.308 158.902C206.332 158.902 205.409 159.639 205.07 160.516C204.592 161.757 205.435 162.541 206.491 163.112C207.786 163.816 209.24 164.148 210.655 164.493C212.195 164.865 213.736 165.357 215.316 165.569C215.516 165.596 215.715 165.609 215.921 165.609C217.289 165.609 218.703 165.005 219.48 163.869C220.41 162.514 220.025 160.708 218.73 159.699Z" fill="#504F4F"/>
<path d="M217.468 152.992L210.004 148.37L200.86 164.4H200.866C200.382 165.183 200.207 166.118 200.375 167.023L202.214 184.183L206.723 184.123L207.706 167.588L217.468 152.992Z" fill="url(#paint3_linear_19_59)"/>
<path d="M201.564 179.103L202.215 184.176L206.723 184.116L207.115 179.043L201.564 179.103Z" fill="#E0E0E0"/>
<path d="M216.532 146.159C215.707 145.651 214.757 145.382 213.789 145.382C212.043 145.382 210.329 146.258 209.34 147.859L202.613 159.42L211.08 164.659C211.08 164.659 217.428 154.831 218.225 153.35C219.507 150.96 218.989 147.679 216.532 146.159Z" fill="#7C7C7C"/>
<path d="M209.214 186.759L208.702 184.933C208.364 183.685 206.71 182.616 206.71 182.616L202.155 183.877L198.429 186.368C197.546 187.032 197.154 188.167 197.44 189.243L197.666 190.073C197.745 190.372 198.024 190.571 198.316 190.571C198.376 190.571 198.436 190.564 198.496 190.545L208.676 187.716C209.088 187.603 209.333 187.171 209.214 186.759Z" fill="#4568AD"/>
<path d="M200.574 137.632C199.791 137.466 199.007 137.366 198.27 137.366C196.596 137.366 195.195 137.884 194.598 139.239C194.113 140.315 193.608 141.411 193.084 142.506C192.147 144.492 192.911 147.54 195.235 148.27C201.271 150.189 201.105 151.982 204.612 153.609C205.628 154.081 206.591 154.287 207.494 154.287C211.916 154.287 215.044 149.373 216.89 146.238C212.833 142.101 207.427 139.139 200.574 137.632Z" fill="url(#paint4_radial_19_59)"/>
<path d="M198.157 142.792L192.991 141.264L189.916 152.7L184.391 157.355C183.435 157.029 182.173 156.857 181.277 156.857H181.257C181.164 156.857 181.077 156.857 180.998 156.863C180.958 156.863 180.925 156.87 180.891 156.87C180.845 156.877 180.798 156.877 180.759 156.883C180.712 156.89 180.659 156.896 180.619 156.903C180.606 156.903 180.593 156.91 180.573 156.91C180.453 156.93 180.347 156.963 180.281 157.003C180.035 157.149 179.656 157.481 179.298 157.806C178.747 158.318 178.461 159.055 178.521 159.805L178.561 160.35C178.514 160.516 178.766 160.901 179.145 161.127C179.165 161.14 179.191 161.153 179.211 161.166C179.231 161.18 179.258 161.186 179.284 161.2C179.577 161.339 179.929 161.372 180.274 161.133C180.725 160.834 180.241 160.004 180.453 159.652C180.699 159.234 181.124 158.809 181.124 158.809C181.124 158.809 182.439 158.709 182.724 158.915C183.229 159.334 183.375 159.705 183.09 160.502C182.884 161.073 182.412 161.664 182.651 161.857C182.738 161.93 182.824 161.99 182.904 162.043C182.91 162.05 182.917 162.05 182.923 162.056C182.983 162.096 183.043 162.136 183.103 162.163C183.136 162.182 183.176 162.189 183.209 162.209C183.236 162.222 183.262 162.229 183.295 162.236C183.348 162.249 183.402 162.255 183.455 162.255H183.481C183.787 162.262 184.119 162.07 184.604 161.585C185.288 160.894 185.938 161.127 186.463 160.602L193.037 156.186L193.117 156.133C193.243 156.066 193.369 155.987 193.482 155.9L193.509 155.887C193.887 155.588 194.166 155.177 194.306 154.705H194.312L198.177 142.785L198.157 142.792Z" fill="url(#paint5_linear_19_59)"/>
<path d="M181.874 157.667C180.832 157.667 179.988 158.51 179.988 159.553C179.988 160.595 180.832 161.439 181.874 161.439C182.917 161.439 183.76 160.595 183.76 159.553C183.76 158.51 182.91 157.667 181.874 157.667Z" fill="url(#paint6_radial_19_59)"/>
<path d="M196.597 139.418C196.151 139.286 195.684 139.242 195.222 139.29C194.76 139.338 194.312 139.477 193.904 139.698C193.495 139.92 193.135 140.219 192.842 140.581C192.55 140.942 192.332 141.357 192.2 141.802L190.507 148.104L196.968 150.017L198.981 143.808C199.532 141.935 198.469 139.97 196.597 139.418Z" fill="#ED6D23"/>
<path d="M201.763 134.046C201.754 134.002 201.735 133.96 201.706 133.925C201.677 133.89 201.639 133.863 201.597 133.847C201.557 133.834 201.524 133.82 201.477 133.82C201.431 133.82 201.378 133.834 201.331 133.86C201.026 134.033 200.773 134.086 200.588 134.086C200.508 134.086 200.435 134.073 200.375 134.059C200.827 133.442 200.82 132.399 200.309 131.602C200.282 131.523 200.196 131.476 200.096 131.476C200.076 131.476 200.063 131.476 200.043 131.483C199.93 131.503 199.837 131.596 199.811 131.709C199.811 131.709 199.299 132.2 198.662 132.2C198.489 132.2 198.303 132.16 198.111 132.067C197.108 131.104 194.564 127.757 193.582 127.724C193.143 127.711 193.887 134.073 193.947 134.611C194.073 135.806 194.013 137.234 194.086 138.482C194.013 138.462 193.954 138.449 193.927 138.442L193.648 139.12C193.748 139.153 194.272 139.385 195.023 139.385C195.474 139.385 196.005 139.299 196.577 139.04C197.141 138.788 197.393 138.323 197.52 138.017C197.752 138.097 198.084 138.177 198.436 138.177C198.688 138.177 198.947 138.137 199.186 138.017C199.864 137.685 200.076 137.114 200.136 136.802C200.946 136.536 202.122 135.7 201.763 134.046Z" fill="#312D2D"/>
<path d="M201.763 134.046C201.754 134.002 201.735 133.96 201.706 133.925C201.677 133.89 201.639 133.863 201.597 133.847C201.557 133.834 201.524 133.82 201.477 133.82C201.431 133.82 201.378 133.834 201.331 133.86C201.026 134.033 200.773 134.086 200.588 134.086C200.508 134.086 200.435 134.073 200.375 134.059C200.827 133.442 200.82 132.399 200.309 131.602C200.282 131.523 200.196 131.476 200.096 131.476C200.076 131.476 200.063 131.476 200.043 131.483C199.93 131.503 199.837 131.596 199.811 131.709C199.811 131.709 199.299 132.2 198.662 132.2C198.489 132.2 198.303 132.16 198.111 132.067C197.108 131.104 194.564 127.757 193.582 127.724C193.143 127.711 193.887 134.073 193.947 134.611C194.073 135.806 194.013 137.234 194.086 138.482C194.013 138.462 193.954 138.449 193.927 138.442L193.648 139.12C193.748 139.153 194.272 139.385 195.023 139.385C195.474 139.385 196.005 139.299 196.577 139.04C197.141 138.788 197.393 138.323 197.52 138.017C197.752 138.097 198.084 138.177 198.436 138.177C198.688 138.177 198.947 138.137 199.186 138.017C199.864 137.685 200.076 137.114 200.136 136.802C200.946 136.536 202.122 135.7 201.763 134.046Z" fill="url(#paint7_radial_19_59)"/>
<path d="M190.5 140.461C190.573 141.563 188.641 144.06 188.588 144.213C188.482 144.465 189.537 144.505 189.77 144.266C190.002 144.027 192.141 141.922 193.515 139.292C194.133 138.11 195.527 134.969 195.527 134.969L193.582 134.02C193.582 134.02 193.011 139.478 191.636 139.458C190.255 139.438 190.281 134.152 190.281 134.152L187.18 135.441C187.18 135.441 190.461 139.777 190.5 140.461Z" fill="url(#paint8_linear_19_59)"/>
<path d="M195.62 127.067C193.894 125.446 191.583 124.65 189.259 124.65C188.17 124.65 187.067 124.822 186.025 125.174C185.068 125.493 182.06 126.974 180.772 129.537C180.234 130.613 179.809 131.788 179.703 132.984C179.643 133.634 179.636 134.796 180.161 135.368C180.393 135.62 180.672 135.7 180.938 135.7C181.077 135.7 181.217 135.68 181.35 135.653C182.047 135.5 183.807 134.757 184.331 134.704C184.404 134.697 184.471 134.697 184.544 134.697C185.646 134.697 186.463 135.487 186.682 135.646C187.127 135.965 187.572 136.218 188.09 136.218C188.535 136.218 189.039 136.038 189.657 135.56C190.461 134.943 190.64 134.464 191.357 134.338C191.437 134.325 191.53 134.312 191.623 134.312C192.107 134.312 192.771 134.564 193.548 135.773C194.206 136.795 194.97 137.227 195.62 137.227C195.999 137.227 196.337 137.087 196.596 136.835C197.586 135.892 199.512 130.679 195.62 127.067Z" fill="url(#paint9_radial_19_59)"/>
<g clip-path="url(#clip0_19_59)">
<path d="M145 0H80V160H145C153.25 160 160 153.25 160 145V15C160 6.75 153.25 0 145 0Z" fill="#01A59C"/>
<path d="M15 0C6.75 0 0 6.75 0 15V145C0 153.25 6.75 160 15 160H80V0H15Z" fill="#0C6667"/>
<path d="M105.44 155.94C103.52 155.94 101.6 155.21 100.135 153.745L93.065 146.675C90.135 143.745 90.135 139 93.065 136.07C95.995 133.14 100.74 133.14 103.67 136.07L110.74 143.14C113.67 146.07 113.67 150.815 110.74 153.745C109.275 155.205 107.36 155.94 105.44 155.94ZM76.245 129.855H66.245C62.1 129.855 58.745 126.495 58.745 122.355C58.745 118.215 62.1 114.855 66.245 114.855H76.245C80.39 114.855 83.745 118.215 83.745 122.355C83.745 126.495 80.39 129.855 76.245 129.855Z" fill="#F4D6B0"/>
<path d="M24.54 24.815L39.08 50H10L24.54 24.815ZM37.17 30H66.25L51.71 4.815L37.17 30Z" fill="#01A59C"/>
<path d="M135.46 64.815L150 90H120.92L135.46 64.815Z" fill="#0C6667"/>
<path d="M29.985 87.985C33.625 89.96 38.18 88.625 40.16 84.985C41.58 82.385 43.195 79.895 44.965 77.585C47.48 74.3 46.86 69.585 43.57 67.07C40.285 64.545 35.575 65.17 33.055 68.46C30.815 71.385 28.775 74.53 26.99 77.805C25.005 81.445 26.35 86 29.985 87.985Z" fill="#F4D6B0"/>
<path d="M109.485 34.48C105.875 34.695 102.41 35 99.09 35.405C94.975 35.9 92.04 39.63 92.535 43.745C92.99 47.555 96.23 50.35 99.97 50.35C99.97 50.35 106.28 49.695 110.375 49.45C114.51 49.205 117.665 45.655 117.42 41.52C117.175 37.39 113.625 34.185 109.485 34.48Z" fill="#F4D6B0"/>
<path d="M68.2 42.845C64.78 44.185 61.46 45.7 58.34 47.355C54.685 49.3 53.29 53.835 55.23 57.495C56.58 60.035 59.175 61.48 61.865 61.48C64.295 61.48 67.37 59.275 73.665 56.815C77.52 55.305 79.425 50.955 77.92 47.1C76.405 43.24 72.07 41.355 68.2 42.845Z" fill="#F4D6B0"/>
<path d="M43.525 122.5L52.715 113.31C55.76 110.265 55.76 105.33 52.715 102.285C49.67 99.24 44.73 99.24 41.69 102.285L32.5 111.475L23.31 102.285C22.185 101.16 20.78 100.595 19.335 100.3C16.86 99.795 14.205 100.365 12.285 102.285C9.23997 105.33 9.23997 110.265 12.285 113.31L21.475 122.5L12.285 131.69C9.23997 134.735 9.23997 139.67 12.285 142.715C13.805 144.24 15.8 145 17.795 145C19.79 145 21.79 144.24 23.31 142.715L32.5 133.525L41.69 142.715C43.215 144.24 45.21 145 47.205 145C49.2 145 51.195 144.24 52.72 142.715C55.765 139.67 55.765 134.735 52.72 131.69L43.525 122.5Z" fill="#F27261"/>
<path d="M105.76 4.27L105.56 14.265C105.475 18.405 108.765 21.835 112.905 21.915C112.96 21.915 113.01 21.915 113.06 21.915C117.13 21.915 120.475 18.655 120.555 14.565L120.755 4.57C120.79 2.86 120.225 1.285 119.28 0H107.2C106.325 1.195 105.795 2.655 105.76 4.27Z" fill="#F4D6B0"/>
</g>
<defs>
<radialGradient id="paint0_radial_19_59" cx="0" cy="0" r="1" gradientUnits="userSpaceOnUse" gradientTransform="translate(224.756 188.234) scale(15.4939)">
<stop stop-color="#78909C"/>
<stop offset="0.562" stop-color="#617A86"/>
<stop offset="1" stop-color="#546E7A"/>
</radialGradient>
<radialGradient id="paint1_radial_19_59" cx="0" cy="0" r="1" gradientUnits="userSpaceOnUse" gradientTransform="translate(180.237 188.234) scale(15.4939)">
<stop stop-color="#78909C"/>
<stop offset="0.562" stop-color="#617A86"/>
<stop offset="1" stop-color="#546E7A"/>
</radialGradient>
<linearGradient id="paint2_linear_19_59" x1="183.03" y1="174.972" x2="225.803" y2="174.972" gradientUnits="userSpaceOnUse">
<stop stop-color="#D8EB21"/>
<stop offset="0.441" stop-color="#D6E921"/>
<stop offset="0.606" stop-color="#B8C721"/>
<stop offset="0.804" stop-color="#ADBA21"/>
</linearGradient>
<linearGradient id="paint3_linear_19_59" x1="227.753" y1="124.138" x2="184.039" y2="215.549" gradientUnits="userSpaceOnUse">
<stop offset="0.195" stop-color="#FFD29C"/>
<stop offset="0.691" stop-color="#F9DDBD"/>
</linearGradient>
<radialGradient id="paint4_radial_19_59" cx="0" cy="0" r="1" gradientUnits="userSpaceOnUse" gradientTransform="translate(204.792 145.827) scale(10.4391)">
<stop offset="0.367" stop-color="#F78C1F"/>
<stop offset="0.68" stop-color="#F37F21"/>
<stop offset="1" stop-color="#ED6D23"/>
</radialGradient>
<linearGradient id="paint5_linear_19_59" x1="178.521" y1="151.767" x2="198.172" y2="151.767" gradientUnits="userSpaceOnUse">
<stop offset="0.5" stop-color="#F9DDBD"/>
<stop offset="1" stop-color="#FFD29C"/>
</linearGradient>
<radialGradient id="paint6_radial_19_59" cx="0" cy="0" r="1" gradientUnits="userSpaceOnUse" gradientTransform="translate(181.874 159.553) scale(1.88594)">
<stop stop-color="#78909C"/>
<stop offset="0.562" stop-color="#617A86"/>
<stop offset="1" stop-color="#546E7A"/>
</radialGradient>
<radialGradient id="paint7_radial_19_59" cx="0" cy="0" r="1" gradientUnits="userSpaceOnUse" gradientTransform="translate(188.945 135.369) scale(11.4132)">
<stop offset="0.784" stop-color="#454140" stop-opacity="0"/>
<stop offset="1" stop-color="#454140"/>
</radialGradient>
<linearGradient id="paint8_linear_19_59" x1="191.19" y1="137.082" x2="190.737" y2="142.273" gradientUnits="userSpaceOnUse">
<stop stop-color="#646464"/>
<stop offset="0.995" stop-color="#262626"/>
</linearGradient>
<radialGradient id="paint9_radial_19_59" cx="0" cy="0" r="1" gradientUnits="userSpaceOnUse" gradientTransform="translate(185.861 130.027) scale(7.84523)">
<stop stop-color="#81D4FA"/>
<stop offset="0.36" stop-color="#5EB3E7"/>
<stop offset="0.775" stop-color="#3C92D3"/>
<stop offset="1" stop-color="#2F85CC"/>
</radialGradient>
<clipPath id="clip0_19_59">
<rect width="160" height="160" fill="white"/>
</clipPath>
</defs>
</svg>
