<svg width="254" height="224" viewBox="0 0 254 224" fill="none" xmlns="http://www.w3.org/2000/svg">
<path d="M186.556 22.2125H121.865V30.0012C121.865 33.6971 118.864 36.6984 115.168 36.6984H108.347C104.651 36.6984 101.65 33.6971 101.65 30.0012V22.2125H95.9941V30.0012C95.9941 33.6971 92.9928 36.6984 89.2969 36.6984H82.4756C78.7797 36.6984 75.7783 33.6971 75.7783 30.0012V22.2125H67.4191C65.3603 22.2125 63.6984 23.8744 63.6984 25.9332V188.553C63.6984 190.612 65.3603 192.273 67.4191 192.273H122.982L190.277 124.978V25.9332C190.277 23.8992 188.615 22.2125 186.556 22.2125ZM157.535 61.4783C151.78 61.4783 147.092 56.815 147.092 51.0355C147.092 45.2561 151.755 40.5928 157.535 40.5928C163.314 40.5928 167.977 45.2561 167.977 51.0355C167.977 56.815 163.289 61.4783 157.535 61.4783ZM152.698 192.273L190.277 154.694V135.52L133.524 192.273H152.698ZM182.414 192.273L190.277 184.41V165.236L163.24 192.273H182.414Z" fill="#FFBC00"/>
<path d="M186.556 14.7711H121.865V6.98242C121.865 3.28652 118.864 0.285156 115.168 0.285156H108.347C104.651 0.285156 101.65 3.28652 101.65 6.98242V14.7711H95.9941V6.98242C95.9941 3.28652 92.9928 0.285156 89.2969 0.285156H82.4756C78.7797 0.285156 75.7783 3.28652 75.7783 6.98242V14.7711H67.4191C61.2676 14.7711 56.257 19.7816 56.257 25.9332V188.553C56.257 194.704 61.2676 199.715 67.4191 199.715H186.531C192.683 199.715 197.693 194.704 197.693 188.553V25.9332C197.718 19.7816 192.708 14.7711 186.556 14.7711ZM114.424 7.72656V29.2818H109.091V7.72656H114.424ZM88.5527 7.72656V29.2818H83.2197V7.72656H88.5527ZM190.277 184.41L182.414 192.273H163.24L190.277 165.236V184.41ZM190.277 154.694L152.698 192.273H133.524L190.277 135.52V154.694ZM190.277 125.003L123.006 192.273H67.4439C65.3851 192.273 63.7232 190.612 63.7232 188.553V25.9332C63.7232 23.8744 65.3851 22.2125 67.4439 22.2125H75.8031V30.0012C75.8031 33.6971 78.8045 36.6984 82.5004 36.6984H89.2969C92.9928 36.6984 95.9941 33.6971 95.9941 30.0012V22.2125H101.65V30.0012C101.65 33.6971 104.651 36.6984 108.347 36.6984H115.168C118.864 36.6984 121.865 33.6971 121.865 30.0012V22.2125H186.556C188.615 22.2125 190.277 23.8744 190.277 25.9332V125.003Z" fill="#46287C"/>
<path d="M83.2445 7.72656H88.5775V29.2818H83.2445V7.72656ZM109.091 7.72656H114.424V29.2818H109.091V7.72656Z" fill="#FFBC00"/>
<path d="M147.092 51.0355C147.092 53.8051 148.192 56.4613 150.15 58.4197C152.109 60.3781 154.765 61.4783 157.535 61.4783C160.304 61.4783 162.96 60.3781 164.919 58.4197C166.877 56.4613 167.977 53.8051 167.977 51.0355C167.977 48.266 166.877 45.6098 164.919 43.6514C162.96 41.693 160.304 40.5928 157.535 40.5928C154.765 40.5928 152.109 41.693 150.15 43.6514C148.192 45.6098 147.092 48.266 147.092 51.0355Z" fill="white"/>
<path d="M33.2997 19.7569C39.794 19.7569 44.5244 24.5111 44.5244 30.9816V40.105C44.5244 46.5993 39.8082 51.3107 33.314 51.3107H24.1763C17.682 51.3107 12.9706 46.5993 12.9706 40.105V30.9816C12.9406 29.4988 13.205 28.0247 13.7485 26.6447C14.292 25.2648 15.1038 24.0063 16.1369 22.9422C17.1999 21.9063 18.4578 21.0914 19.8377 20.5446C21.2176 19.9979 22.6923 19.7301 24.1763 19.7569H33.2997ZM33.2997 15.0026H24.1763C15.0482 15.0026 8.21637 21.8582 8.21637 30.9816V40.105C8.21637 49.2331 15.0482 56.0649 24.1763 56.0649H33.2997C42.4231 56.0649 49.2787 49.2331 49.2787 40.105V30.9816C49.2787 21.8582 42.4231 15.0026 33.2997 15.0026Z" fill="#F27261"/>
<path d="M5.93433 58.3469L16.2415 48.0398" stroke="#F27261" stroke-width="4.6875" stroke-miterlimit="10"/>
<path d="M216.732 174.538C210.237 174.538 205.507 179.292 205.507 185.763V194.886C205.507 201.38 210.223 206.092 216.717 206.092H225.855C232.349 206.092 237.061 201.38 237.061 194.886V185.763C237.091 184.28 236.826 182.806 236.283 181.426C235.739 180.046 234.927 178.788 233.894 177.723C232.831 176.687 231.573 175.873 230.194 175.326C228.814 174.779 227.339 174.511 225.855 174.538H216.732ZM216.732 169.784H225.855C234.983 169.784 241.815 176.639 241.815 185.763V194.886C241.815 204.014 234.983 210.846 225.855 210.846H216.732C207.608 210.846 200.753 204.014 200.753 194.886V185.763C200.753 176.639 207.608 169.784 216.732 169.784Z" fill="#F27261"/>
<path d="M244.097 213.128L233.79 202.821" stroke="#F27261" stroke-width="4.6875" stroke-miterlimit="10"/>
</svg>
