<svg width="25" height="24" viewBox="0 0 25 24" fill="none" xmlns="http://www.w3.org/2000/svg">
<path d="M19.7067 2.53537e-05C19.0112 -0.00209225 18.3222 0.128461 17.6797 0.384102C17.0372 0.639743 16.454 1.01538 15.964 1.48919L1.44443 15.4256C1.25818 15.6047 1.13567 15.8357 1.09441 16.0856L0.0155978 22.6111C-0.0155036 22.7983 4.83384e-05 22.9899 0.0609792 23.1702C0.12191 23.3506 0.226486 23.5145 0.366137 23.6485C0.505789 23.7826 0.676542 23.883 0.864405 23.9415C1.05227 24 1.2519 24.0149 1.44693 23.985L8.25106 22.9495C8.51141 22.9098 8.75206 22.7922 8.9386 22.6135L23.4507 8.67581C24.191 7.96451 24.695 7.05841 24.8988 6.07213C25.1026 5.08585 24.9971 4.06371 24.5957 3.13499C24.1942 2.20627 23.5148 1.4127 22.6435 0.854673C21.7721 0.296643 20.7479 -0.000780105 19.7005 2.53537e-05H19.7067ZM7.45102 20.6395L2.75075 21.3595L3.50079 16.8512L13.9889 6.78226L17.9416 10.5766L7.45102 20.6395ZM21.6831 6.97905L19.708 8.8798L15.7515 5.0819L17.7278 3.18595C18.2601 2.69821 18.9677 2.42608 19.7036 2.42608C20.4394 2.42608 21.147 2.69821 21.6793 3.18595C21.9389 3.43491 22.1449 3.73056 22.2854 4.05598C22.426 4.3814 22.4983 4.73022 22.4983 5.0825C22.4983 5.43477 22.426 5.78359 22.2854 6.10902C22.1449 6.43444 21.9389 6.73009 21.6793 6.97905H21.6831Z" fill="white"/>
</svg>
