<svg width="28" height="28" viewBox="0 0 28 28" fill="none" xmlns="http://www.w3.org/2000/svg">
<path d="M16.3334 11.6667V19.8333M11.6667 11.6667V19.8333M7.00008 7V20.7667C7.00008 22.0734 7.00008 22.7264 7.2544 23.2255C7.4781 23.6645 7.8348 24.0222 8.27385 24.2459C8.77248 24.5 9.42557 24.5 10.7298 24.5H17.2704C18.5746 24.5 19.2267 24.5 19.7254 24.2459C20.1644 24.0222 20.5223 23.6645 20.746 23.2255C21.0001 22.7269 21.0001 22.0745 21.0001 20.7703V7M7.00008 7H9.33341M7.00008 7H4.66675M21.0001 7H18.6667M21.0001 7H23.3334M9.33341 7H18.6667M9.33341 7C9.33341 5.91281 9.33341 5.36948 9.51103 4.94067C9.74785 4.36894 10.2018 3.91444 10.7735 3.67761C11.2023 3.5 11.7462 3.5 12.8334 3.5H15.1667C16.254 3.5 16.7975 3.5 17.2264 3.67761C17.798 3.91444 18.2522 4.36894 18.4891 4.94067C18.6666 5.36947 18.6667 5.91281 18.6667 7" stroke="white" stroke-width="2" stroke-linecap="round" stroke-linejoin="round"/>
</svg>
